<svg width="31" height="28" viewBox="0 0 31 28" fill="none" xmlns="http://www.w3.org/2000/svg">
<path d="M15.5 0C6.95354 0 0 6.28062 0 14C0 21.7194 6.95354 28 15.5 28C24.0465 28 31 21.7194 31 14C31 6.28062 24.0465 0 15.5 0ZM15.5 2.15385C22.7564 2.15385 28.6154 7.44585 28.6154 14C28.6154 20.5542 22.7564 25.8462 15.5 25.8462C8.24362 25.8462 2.38462 20.5542 2.38462 14C2.38462 7.44585 8.24362 2.15385 15.5 2.15385ZM15.5 5.38462C12.2212 5.38462 9.53846 7.80769 9.53846 10.7692C9.53846 12.4018 10.3814 13.8525 11.662 14.8411C10.3033 15.4772 9.16433 16.4383 8.36932 17.6194C7.5743 18.8005 7.15384 20.1562 7.15385 21.5385H9.53846C9.53846 18.5522 12.1937 16.1538 15.5 16.1538C18.8063 16.1538 21.4615 18.5522 21.4615 21.5385H23.8462C23.8462 18.6308 22.0207 16.1 19.338 14.8411C20.6186 13.8525 21.4615 12.4018 21.4615 10.7692C21.4615 7.80769 18.7788 5.38462 15.5 5.38462ZM15.5 7.53846C17.4888 7.53846 19.0769 8.97292 19.0769 10.7692C19.0769 12.5655 17.4888 14 15.5 14C13.5112 14 11.9231 12.5655 11.9231 10.7692C11.9231 8.97292 13.5112 7.53846 15.5 7.53846Z" fill="#DF5700"/>
</svg>
